<svg id="Isolation_Mode" data-name="Isolation Mode" xmlns="http://www.w3.org/2000/svg" viewBox="0 0 166.28 161.96"><path d="M651.38,361.44c0,5.58,0,11.16,0,16.74,0,4-1.82,5.07-5.24,3.1-9.92-5.7-19.85-11.38-29.67-17.25a5.18,5.18,0,0,1-2.12-3.75c-.17-11.56-.12-23.12-.08-34.67,0-3.5,2-4.55,5.09-2.78,9.74,5.63,19.44,11.31,29.22,16.84a5,5,0,0,1,2.86,5C651.3,350.28,651.39,355.86,651.38,361.44Z" transform="translate(-614.22 -220.32)"/><path d="M738.63,361.28c0,5.68,0,11.36,0,17,0,3.83-1.82,4.93-5.08,3.06-10-5.74-20-11.48-29.95-17.39a4.92,4.92,0,0,1-2-3.54c-.15-11.66-.11-23.31-.05-35,0-3.36,2-4.41,4.93-2.71,9.93,5.7,19.81,11.47,29.75,17.15a4.33,4.33,0,0,1,2.45,4.33C738.56,349.92,738.63,355.6,738.63,361.28Z" transform="translate(-614.22 -220.32)"/><path d="M657.89,267.9c0-5.78,0-11.56,0-17.33,0-3.41,1.88-4.5,4.87-2.79,10.11,5.78,20.2,11.58,30.21,17.51a4.56,4.56,0,0,1,1.92,3.27c.14,11.76.12,23.51.08,35.26,0,3.19-1.94,4.31-4.74,2.71-10.2-5.81-20.38-11.64-30.47-17.65a5,5,0,0,1-1.79-3.66C657.79,279.45,657.89,273.67,657.89,267.9Z" transform="translate(-614.22 -220.32)"/><path d="M738,322.41l14.26,8.43c-3.59,2.07-6.78,4.06-10.12,5.75a3.82,3.82,0,0,1-3-.42q-15.2-8.61-30.28-17.38c-3-1.77-3-4.05,0-5.83,9.89-5.74,19.76-11.53,29.76-17.07a5.89,5.89,0,0,1,4.88,0c10,5.56,19.86,11.35,29.75,17.1,2.94,1.71,3,3.82.2,5.63l-.51.31c-3.36,1.94-6.69,5.36-10.08,5.42s-7-3-10.06-5.22c-3.53-2.59-6.49-2.54-9.76.15A47.53,47.53,0,0,1,738,322.41Z" transform="translate(-614.22 -220.32)"/><path d="M694.28,247.38c3,1.77,5.14,3.11,7.35,4.41s4.45,2.59,7,4.05c-3.32,1.93-6.23,3.83-9.33,5.34a4.74,4.74,0,0,1-3.82,0c-10.16-5.7-20.23-11.53-30.29-17.4-3-1.78-3-4,.16-5.79,9.89-5.76,19.76-11.55,29.75-17.13a5.54,5.54,0,0,1,4.61,0c10.08,5.61,20.05,11.42,30,17.23,2.7,1.58,2.76,3.93.11,5.57-3.13,1.93-6.33,3.78-9.6,5.46a3.64,3.64,0,0,1-2.92-.16c-3.68-2-7.18-4.28-10.91-6.17a5.23,5.23,0,0,0-4-.05C699.78,243.88,697.41,245.52,694.28,247.38Z" transform="translate(-614.22 -220.32)"/><path d="M650.65,322.36l14.3,8.48c-3.6,2.08-6.87,4.08-10.27,5.83a3.56,3.56,0,0,1-2.78-.45q-15.28-8.69-30.51-17.54c-2.82-1.64-2.75-4,.11-5.67,9.88-5.74,19.8-11.43,29.68-17.2a4.72,4.72,0,0,1,5.29,0c9.78,5.73,19.6,11.38,29.4,17.08,3.1,1.8,3.13,3.93.13,5.79a2.2,2.2,0,0,1-.26.15c-3.55,2-7.11,5.51-10.64,5.47s-7.21-3.41-10.56-5.71c-2.74-1.88-5-2.15-7.67,0A54.35,54.35,0,0,1,650.65,322.36Z" transform="translate(-614.22 -220.32)"/><path d="M669.67,333.76v16.15l1,.57c3.14-1.88,6.31-3.71,9.36-5.72.43-.28.32-1.49.33-2.27,0-4.28-.09-8.57.09-12.84a4.36,4.36,0,0,1,1.58-2.94,65.13,65.13,0,0,1,6.78-4.08c2.57-1.43,4.68-.2,4.7,2.75.06,11.75.09,23.5-.07,35.24a4.94,4.94,0,0,1-2.16,3.47c-9.83,5.84-19.76,11.52-29.67,17.23-3.42,2-5.21.89-5.21-3.14,0-11.3-.08-22.6.09-33.9a5.76,5.76,0,0,1,2.22-4.17C662,337.88,665.57,336.09,669.67,333.76Z" transform="translate(-614.22 -220.32)"/><path d="M756.67,333.7V351c3.86-2.3,7.07-4.11,10.13-6.14.5-.33.46-1.65.47-2.52.05-4,0-8,0-11.95,0-.4,0-.8,0-1.19.13-2.39,9.54-8.2,11.57-7a3.94,3.94,0,0,1,1.54,2.9c.11,11.85.13,23.7,0,35.55a4.57,4.57,0,0,1-2,3.26c-10,5.93-20.09,11.74-30.19,17.52-2.94,1.68-4.88.55-4.9-2.81,0-11.65-.06-23.3.08-34.95a4.78,4.78,0,0,1,1.82-3.39C748.71,338.08,752.4,336.14,756.67,333.7Z" transform="translate(-614.22 -220.32)"/><path d="M712.67,258.71V276c3.84-2.23,7.06-4,10.15-6,.5-.32.49-1.63.5-2.48,0-4.29-.08-8.57.1-12.84a4.47,4.47,0,0,1,1.6-3,59.93,59.93,0,0,1,6.73-4c2.87-1.55,4.71-.53,4.72,2.67,0,11.75.09,23.5-.07,35.25a4.91,4.91,0,0,1-2.11,3.46c-9.83,5.84-19.75,11.51-29.66,17.21-3.76,2.16-5.56.63-5.16-4.45a183.39,183.39,0,0,0-.05-31.44c-.28-2.95.48-4.5,2.76-5.69C705.51,263,708.72,261,712.67,258.71Z" transform="translate(-614.22 -220.32)"/></svg>